<svg xmlns="http://www.w3.org/2000/svg" viewBox="0 0 128 128" role="img" aria-labelledby="title">
  <title>Elaman icon</title>
  <rect width="128" height="128" rx="28" fill="#ffffff" />
  <g fill="#788292">
    <circle cx="30" cy="58" r="5.5" />
    <circle cx="42" cy="46" r="5.5" />
    <circle cx="42" cy="58" r="5.5" />
    <circle cx="42" cy="70" r="5.5" />
    <circle cx="54" cy="34" r="5.5" />
    <circle cx="54" cy="46" r="5.5" />
    <circle cx="54" cy="58" r="5.5" />
    <circle cx="54" cy="70" r="5.5" />
    <circle cx="54" cy="82" r="5.5" />
    <circle cx="66" cy="22" r="5.5" />
    <circle cx="66" cy="34" r="5.5" />
    <circle cx="66" cy="46" r="5.5" />
    <circle cx="66" cy="58" r="5.5" />
    <circle cx="66" cy="70" r="5.5" />
    <circle cx="66" cy="82" r="5.5" />
    <circle cx="66" cy="94" r="5.5" />
    <circle cx="78" cy="34" r="5.5" />
    <circle cx="78" cy="46" r="5.5" />
    <circle cx="78" cy="58" r="5.5" />
    <circle cx="78" cy="70" r="5.5" />
    <circle cx="78" cy="82" r="5.5" />
    <circle cx="90" cy="46" r="5.5" />
    <circle cx="90" cy="58" r="5.5" />
    <circle cx="90" cy="70" r="5.5" />
    <circle cx="102" cy="58" r="5.5" />
  </g>
  <circle cx="90" cy="46" r="5.5" fill="#D83034" />
  <circle cx="66" cy="58" r="5.5" fill="#244074" />
</svg>
